<?xml version="1.0" encoding="UTF-8"?>
<svg id="Layer_1" data-name="Layer 1" xmlns="http://www.w3.org/2000/svg" viewBox="0 0 2253.98 468.81">
  <defs>
    <style>
      .cls-1 {
        fill: #00b1b3;
      }

      .cls-1, .cls-2 {
        stroke-width: 0px;
      }

      .cls-2 {
        fill: #003462;
      }
    </style>
  </defs>
  <g>
    <polygon class="cls-1" points="335.73 0 335.73 212.2 51.31 0 0 0 0 295.65 53.73 295.65 53.73 73.09 358.74 295.65 389.46 295.65 389.46 0 335.73 0"/>
    <path class="cls-1" d="m535.15,48.79h236.29V0h-236.29c-16.67,0-31.07,1.77-42.82,5.27-11.88,3.54-21.73,8.58-29.27,14.99-7.62,6.47-13.23,14.28-16.7,23.22-3.41,8.81-5.14,18.73-5.14,29.47v149.76c0,10.75,1.73,20.67,5.14,29.47,3.46,8.94,9.07,16.75,16.7,23.22,7.55,6.42,17.4,11.46,29.27,14.99,11.73,3.5,26.14,5.27,42.82,5.27h236.29v-48.79h-236.29c-22.34,0-33.21-7.77-33.21-23.74V72.53c0-15.98,10.86-23.74,33.21-23.74Z"/>
    <g>
      <rect class="cls-1" x="839.65" width="60.72" height="295.65"/>
      <polygon class="cls-1" points="1304.31 212.2 1019.89 0 968.57 0 968.57 295.65 1022.3 295.65 1022.3 73.09 1327.31 295.65 1358.04 295.65 1358.04 0 1304.31 0 1304.31 212.2"/>
      <path class="cls-1" d="m1706.02,230.94c0,13.16-24.77,15.93-45.55,15.93h-127.96c-30.22,0-45.55-5.64-45.55-16.75V65.54c0-11.11,15.33-16.75,45.55-16.75h229.7V0h-229.7c-70.52,0-106.27,22.05-106.27,65.54v164.58c0,43.49,35.76,65.54,106.27,65.54h127.96c70.52,0,106.27-21.77,106.27-64.72v-99.28h-60.72v99.28Z"/>
      <polygon class="cls-1" points="1989.79 0 1793.24 295.65 1861.36 295.65 2054.12 0 1989.79 0"/>
      <polygon class="cls-1" points="2063.38 8.94 2031.7 59.19 2185.86 295.65 2253.98 295.65 2063.38 8.94"/>
    </g>
  </g>
  <g>
    <path class="cls-2" d="m0,383.14h55.34v12.98H14.87v21.24h38.35v12.51H14.87v23.6h42.6v13.22H0v-83.54Z"/>
    <path class="cls-2" d="m97.95,383.14h19.71l38.82,62.54h.24v-62.54h14.87v83.54h-18.88l-39.65-64.55h-.24v64.55h-14.87v-83.54Z"/>
    <path class="cls-2" d="m289.13,462.32c-8.38,4.01-18.41,6.49-31.51,6.49-26.9,0-45.67-18.05-45.67-44.13s19.59-43.66,45.31-43.66c13.22,0,25.02,4.25,31.74,10.5l-10.27,11.09c-4.25-4.72-12.39-8.5-21.36-8.5-17.58,0-29.03,13.33-29.03,30.56s11.33,30.8,29.74,30.8c6.25,0,11.8-.94,16.64-2.95v-21.24h-17.58v-12.27h31.98v43.31Z"/>
    <path class="cls-2" d="m333.16,383.14h14.87v83.54h-14.87v-83.54Z"/>
    <path class="cls-2" d="m392.4,383.14h19.71l38.82,62.54h.24v-62.54h14.87v83.54h-18.88l-39.65-64.55h-.24v64.55h-14.87v-83.54Z"/>
    <path class="cls-2" d="m510.42,383.14h55.34v12.98h-40.48v21.24h38.35v12.51h-38.35v23.6h42.6v13.22h-57.47v-83.54Z"/>
    <path class="cls-2" d="m608.37,383.14h55.34v12.98h-40.48v21.24h38.35v12.51h-38.35v23.6h42.6v13.22h-57.47v-83.54Z"/>
    <path class="cls-2" d="m706.32,383.14h29.03c15.7,0,30.8,6.25,30.8,23.95,0,12.04-7.43,19.94-19.12,22.54l22.3,37.05h-17.94l-19.35-35.4h-10.86v35.4h-14.87v-83.54Zm27.02,35.99c8.38,0,17.94-2.01,17.94-12.15,0-9.09-8.97-11.33-16.64-11.33h-13.45v23.48h12.15Z"/>
    <path class="cls-2" d="m806.52,383.14h55.34v12.98h-40.48v21.24h38.35v12.51h-38.35v23.6h42.6v13.22h-57.47v-83.54Z"/>
    <path class="cls-2" d="m904.47,383.14h29.62c21.83,0,46.14,10.38,46.14,41.77,0,29.26-24.31,41.77-46.14,41.77h-29.62v-83.54Zm27.26,70.56c15.34,0,32.57-6.25,32.57-28.79,0-23.95-17.23-29.03-32.57-29.03h-12.39v57.82h12.39Z"/>
    <path class="cls-2" d="m1076.07,383.14h53.93v12.98h-39.06v22.89h36.82v12.51h-36.82v35.16h-14.87v-83.54Z"/>
    <path class="cls-2" d="m1210.36,381.01c26.08,0,45.08,16.87,45.08,43.66s-19,44.13-45.08,44.13-44.72-18.05-44.72-44.13,19-43.66,44.72-43.66Zm.12,74.46c17.11,0,28.79-12.98,28.79-30.8s-11.45-30.56-28.79-30.56-28.67,13.33-28.67,30.56,11.68,30.8,28.67,30.8Z"/>
    <path class="cls-2" d="m1295.81,383.14h29.03c15.69,0,30.8,6.25,30.8,23.95,0,12.04-7.43,19.94-19.12,22.54l22.3,37.05h-17.94l-19.35-35.4h-10.86v35.4h-14.87v-83.54Zm27.02,35.99c8.38,0,17.94-2.01,17.94-12.15,0-9.09-8.97-11.33-16.64-11.33h-13.45v23.48h12.15Z"/>
    <path class="cls-2" d="m1451.48,383.14h14.87v33.75h39.06v-33.75h14.87v83.54h-14.87v-37.05h-39.06v37.05h-14.87v-83.54Z"/>
    <path class="cls-2" d="m1631.21,436c0,20.18-14.51,32.8-33.63,32.8s-33.63-12.63-33.63-32.8v-52.86h14.87v52.27c0,9.68,4.48,20.06,18.76,20.06s18.76-10.38,18.76-20.06v-52.27h14.87v52.86Z"/>
    <path class="cls-2" d="m1674.88,383.14h23.25l21.71,59.35h.35l21.48-59.35h23.36v83.54h-14.75v-67.14h-.24l-25.37,67.14h-10.38l-25.02-67.14h-.24v67.14h-14.16v-83.54Z"/>
    <path class="cls-2" d="m1835.62,383.14h12.86l35.99,83.54h-16.99l-7.79-19.12h-36.23l-7.55,19.12h-16.64l36.34-83.54Zm18.88,51.68l-12.86-33.98-13.1,33.98h25.96Z"/>
    <path class="cls-2" d="m1918.7,383.14h19.71l38.82,62.54h.24v-62.54h14.87v83.54h-18.88l-39.65-64.55h-.24v64.55h-14.87v-83.54Z"/>
    <path class="cls-2" d="m2036.72,383.14h14.87v83.54h-14.87v-83.54Z"/>
    <path class="cls-2" d="m2112.84,396.12h-25.61v-12.98h66.08v12.98h-25.61v70.57h-14.87v-70.57Z"/>
    <path class="cls-2" d="m2207.72,430.46l-31.39-47.32h18.17l21,35.16,21.24-35.16h17.23l-31.39,47.32v36.23h-14.87v-36.23Z"/>
  </g>
</svg>